<?xml version="1.0" standalone="no"?>
<!DOCTYPE svg PUBLIC "-//W3C//DTD SVG 20010904//EN"
 "http://www.w3.org/TR/2001/REC-SVG-20010904/DTD/svg10.dtd">
<svg version="1.0" xmlns="http://www.w3.org/2000/svg"
 width="1920.000000pt" height="919.000000pt" viewBox="0 0 1920.000000 919.000000"
 preserveAspectRatio="xMidYMid meet">

<g transform="translate(0.000000,919.000000) scale(0.100000,-0.100000)"
fill="#000000" stroke="none">
<path d="M18618 9033 c6 -2 18 -2 25 0 6 3 1 5 -13 5 -14 0 -19 -2 -12 -5z"/>
<path d="M18572 9005 c0 -16 2 -22 5 -12 2 9 2 23 0 30 -3 6 -5 -1 -5 -18z"/>
<path d="M18680 9011 c0 -12 5 -21 10 -21 6 0 10 6 10 14 0 8 -4 18 -10 21 -5
3 -10 -3 -10 -14z"/>
<path d="M230 8983 c-95 -49 -83 -183 20 -214 53 -16 107 10 134 65 17 36 18
43 5 79 -25 71 -96 102 -159 70z m79 -17 c8 -9 11 -43 9 -92 -2 -60 -7 -79
-20 -88 -13 -8 -23 -8 -35 0 -14 9 -19 28 -21 88 -3 81 6 106 38 106 10 0 23
-6 29 -14z"/>
<path d="M260 8954 c-11 -12 -10 -18 3 -32 16 -15 18 -15 34 0 13 14 14 20 3
32 -7 9 -16 16 -20 16 -4 0 -13 -7 -20 -16z"/>
<path d="M490 8880 c0 -27 5 -50 10 -50 6 0 10 9 10 20 0 11 4 20 10 20 5 0
14 -9 20 -20 6 -11 16 -20 22 -20 6 0 4 10 -5 24 -11 16 -13 26 -5 34 18 18 1
42 -32 42 -29 0 -30 -1 -30 -50z m50 20 c0 -5 -7 -10 -15 -10 -8 0 -15 5 -15
10 0 6 7 10 15 10 8 0 15 -4 15 -10z"/>
<path d="M662 8913 c-11 -21 -4 -83 9 -83 5 0 9 11 9 24 0 13 6 27 13 29 9 4
8 8 -3 16 -10 7 -11 11 -2 11 6 0 12 5 12 10 0 17 -29 11 -38 -7z"/>
<path d="M710 8920 c0 -5 5 -10 10 -10 6 0 10 5 10 10 0 6 -4 10 -10 10 -5 0
-10 -4 -10 -10z"/>
<path d="M18493 8923 c-7 -2 -13 -13 -13 -24 0 -16 7 -19 49 -19 49 0 79 18
66 40 -6 10 -79 13 -102 3z"/>
<path d="M18680 8911 c0 -22 19 -31 66 -31 27 0 34 4 34 19 0 20 -25 31 -72
31 -21 0 -28 -5 -28 -19z"/>
<path d="M584 8886 c-10 -26 1 -51 24 -54 26 -4 30 14 5 21 -13 3 -12 5 5 6
17 1 22 6 20 19 -4 22 -46 29 -54 8z"/>
<path d="M710 8865 c0 -19 5 -35 10 -35 6 0 10 16 10 35 0 19 -4 35 -10 35 -5
0 -10 -16 -10 -35z"/>
<path d="M750 8863 c0 -18 5 -33 10 -33 6 0 10 12 10 26 0 31 23 28 28 -4 4
-23 22 -31 22 -9 -1 39 -13 56 -41 55 -26 -1 -29 -4 -29 -35z"/>
<path d="M840 8885 c-17 -21 -2 -49 29 -53 28 -4 27 15 -1 21 l-23 4 23 2 c17
1 22 6 20 18 -4 24 -32 28 -48 8z m37 -11 c-3 -3 -12 -4 -19 -1 -8 3 -5 6 6 6
11 1 17 -2 13 -5z"/>
<path d="M18605 8750 c-10 -16 4 -30 31 -30 17 0 24 5 24 20 0 15 -7 20 -24
20 -14 0 -28 -4 -31 -10z"/>
<path d="M338 8293 c6 -2 18 -2 25 0 6 3 1 5 -13 5 -14 0 -19 -2 -12 -5z"/>
<path d="M299 8273 c-13 -16 -12 -17 4 -4 9 7 17 15 17 17 0 8 -8 3 -21 -13z"/>
<path d="M380 8286 c0 -2 8 -10 18 -17 15 -13 16 -12 3 4 -13 16 -21 21 -21
13z"/>
<path d="M540 8286 c0 -2 13 -6 29 -8 17 -2 28 -1 25 4 -5 8 -54 12 -54 4z"/>
<path d="M653 8254 c21 -7 23 -24 3 -24 -8 0 -17 -4 -20 -9 -4 -5 3 -7 13 -4
13 3 21 -1 24 -14 3 -10 5 -2 4 17 -2 27 -7 35 -22 37 -16 1 -16 1 -2 -3z"/>
<path d="M705 8250 c-8 -13 3 -30 18 -29 9 0 9 2 0 6 -18 7 -16 21 5 26 15 4
15 5 0 6 -9 0 -20 -3 -23 -9z"/>
<path d="M797 8253 c6 -4 13 -22 16 -38 4 -27 5 -27 3 4 0 21 -7 36 -16 38
-10 3 -11 2 -3 -4z"/>
<path d="M870 8256 c0 -2 7 -7 16 -10 8 -3 12 -2 9 4 -6 10 -25 14 -25 6z"/>
<path d="M940 8256 c0 -2 9 -6 20 -9 11 -3 18 -1 14 4 -5 9 -34 13 -34 5z"/>
<path d="M1028 8253 c7 -3 16 -2 19 1 4 3 -2 6 -13 5 -11 0 -14 -3 -6 -6z"/>
<path d="M1137 8253 c-3 -5 5 -8 18 -8 13 0 21 3 18 8 -2 4 -10 7 -18 7 -8 0
-16 -3 -18 -7z"/>
<path d="M921 8224 c0 -11 3 -14 6 -6 3 7 2 16 -1 19 -3 4 -6 -2 -5 -13z"/>
<path d="M1028 8223 c7 -3 16 -2 19 1 4 3 -2 6 -13 5 -11 0 -14 -3 -6 -6z"/>
<path d="M875 8200 c-16 -7 -17 -9 -3 -9 9 -1 20 4 23 9 7 11 7 11 -20 0z"/>
<path d="M955 8200 c-16 -7 -17 -9 -3 -9 9 -1 20 4 23 9 7 11 7 11 -20 0z"/>
<path d="M1137 8199 c7 -7 15 -10 18 -7 3 3 -2 9 -12 12 -14 6 -15 5 -6 -5z"/>
<path d="M548 8193 c6 -2 18 -2 25 0 6 3 1 5 -13 5 -14 0 -19 -2 -12 -5z"/>
<path d="M708 8193 c7 -3 16 -2 19 1 4 3 -2 6 -13 5 -11 0 -14 -3 -6 -6z"/>
<path d="M1018 8193 c7 -3 16 -2 19 1 4 3 -2 6 -13 5 -11 0 -14 -3 -6 -6z"/>
<path d="M323 8183 c15 -2 39 -2 55 0 15 2 2 4 -28 4 -30 0 -43 -2 -27 -4z"/>
<path d="M2503 8123 c15 -2 39 -2 55 0 15 2 2 4 -28 4 -30 0 -43 -2 -27 -4z"/>
<path d="M3210 8073 l0 -60 33 1 c30 1 32 3 32 36 0 26 -4 35 -18 36 -13 2
-14 1 -2 -3 25 -7 16 -58 -10 -58 -17 0 -20 7 -22 49 -3 70 -13 70 -13 -1z"/>
<path d="M3592 8110 c-4 -11 -5 -39 -3 -63 l6 -42 3 35 c2 19 9 38 15 42 9 6
9 8 0 8 -7 0 -13 6 -13 14 0 8 6 17 13 19 9 4 9 6 -1 6 -7 1 -16 -8 -20 -19z"/>
<path d="M8841 8074 c-1 -60 0 -61 25 -60 51 2 59 71 8 71 -12 0 -21 9 -25 25
-4 16 -7 3 -8 -36z m54 -24 c0 -16 -6 -26 -18 -28 -19 -4 -32 20 -23 44 9 25
41 13 41 -16z"/>
<path d="M9214 8108 c-5 -13 -7 -41 -3 -63 l6 -40 2 38 c0 22 6 37 14 37 8 0
7 4 -3 10 -13 9 -12 12 4 25 15 12 16 15 5 15 -9 0 -20 -10 -25 -22z"/>
<path d="M13822 8105 c0 -16 2 -22 5 -12 2 9 2 23 0 30 -3 6 -5 -1 -5 -18z"/>
<path d="M14413 8070 c0 -36 2 -50 4 -32 2 17 2 47 0 65 -2 17 -4 3 -4 -33z"/>
<path d="M14550 8106 c0 -18 -4 -23 -18 -19 -24 6 -44 -19 -40 -49 2 -18 10
-23 36 -24 l32 -1 0 59 c0 32 -2 58 -5 58 -3 0 -5 -11 -5 -24z m-5 -56 c0 -16
-6 -26 -18 -28 -19 -4 -32 20 -23 44 9 25 41 13 41 -16z"/>
<path d="M14753 8070 c0 -36 2 -50 4 -32 2 17 2 47 0 65 -2 17 -4 3 -4 -33z"/>
<path d="M14900 8120 c0 -5 5 -10 10 -10 6 0 10 5 10 10 0 6 -4 10 -10 10 -5
0 -10 -4 -10 -10z"/>
<path d="M15393 8070 c0 -36 2 -50 4 -32 2 17 2 47 0 65 -2 17 -4 3 -4 -33z"/>
<path d="M2872 8063 l1 -58 6 48 6 47 28 -45 c16 -25 30 -45 31 -45 2 0 3 26
3 58 0 55 0 55 -6 13 l-6 -45 -28 42 c-15 23 -29 42 -32 42 -3 0 -4 -26 -3
-57z"/>
<path d="M8492 8063 l1 -58 6 50 6 50 30 -47 c17 -27 33 -48 38 -48 4 0 6 26
5 58 l-1 57 -6 -50 -6 -50 -30 47 c-16 27 -33 48 -37 48 -5 0 -7 -26 -6 -57z"/>
<path d="M14117 8113 c19 -4 23 -12 26 -56 l3 -52 2 52 c2 40 6 53 20 56 9 3
-3 5 -28 4 -25 0 -35 -2 -23 -4z"/>
<path d="M2470 8091 c0 -11 3 -22 8 -24 4 -3 7 6 7 19 0 13 -3 24 -7 24 -5 0
-8 -9 -8 -19z"/>
<path d="M2575 8085 c0 -14 3 -25 8 -25 4 0 7 11 7 25 0 14 -3 25 -7 25 -5 0
-8 -11 -8 -25z"/>
<path d="M9559 8098 c-4 -39 9 -88 23 -88 9 0 9 3 0 12 -14 14 -16 55 -3 60 5
2 3 9 -5 16 -11 10 -14 10 -15 0z"/>
<path d="M9769 8098 c-4 -39 9 -88 23 -88 9 0 9 3 0 12 -14 14 -16 55 -3 60 5
2 3 9 -5 16 -11 10 -14 10 -15 0z"/>
<path d="M14272 8093 c-8 -8 -9 -13 -2 -13 5 0 10 -16 10 -35 0 -27 4 -35 18
-34 10 0 12 3 5 6 -15 5 -18 60 -4 65 5 2 4 8 -3 14 -8 8 -15 7 -24 -3z"/>
<path d="M2981 8065 c-1 -41 10 -55 42 -53 25 2 27 6 26 43 l-2 40 -6 -35 c-4
-26 -11 -35 -26 -35 -15 0 -22 9 -26 35 -6 34 -6 34 -8 5z"/>
<path d="M3083 8050 c0 -25 2 -35 4 -22 2 12 2 32 0 45 -2 12 -4 2 -4 -23z"/>
<path d="M3108 8083 c6 -3 12 -21 13 -41 1 -38 3 -36 13 11 9 39 34 34 39 -8
l4 -35 -1 37 c-1 37 -2 38 -41 39 -22 1 -34 -1 -27 -3z"/>
<path d="M3316 8082 c-3 -6 2 -8 13 -5 10 3 22 0 25 -6 5 -7 -4 -11 -23 -11
-34 0 -38 -7 -18 -34 8 -11 21 -16 33 -13 17 4 17 5 -2 6 -12 0 -24 8 -28 16
-4 11 2 15 25 15 24 0 30 4 27 18 -4 19 -42 29 -52 14z"/>
<path d="M3391 8045 c2 -33 3 -35 6 -10 2 17 11 35 20 42 13 10 13 12 -6 10
-18 -1 -21 -7 -20 -42z"/>
<path d="M3497 8084 c-14 -14 -7 -26 8 -14 20 17 45 5 45 -20 0 -26 -25 -36
-47 -19 -14 12 -16 12 -11 -1 7 -21 48 -19 62 3 8 12 8 22 0 35 -12 18 -45 28
-57 16z"/>
<path d="M3680 8070 c-15 -28 4 -60 33 -59 l22 2 -22 4 c-12 2 -24 11 -27 19
-8 22 3 42 27 47 l22 4 -22 2 c-13 0 -27 -7 -33 -19z"/>
<path d="M3762 8078 c-29 -29 -1 -75 38 -63 17 5 20 13 18 38 -3 35 -33 48
-56 25z m43 -28 c0 -16 -6 -26 -18 -28 -19 -4 -32 20 -23 44 9 25 41 13 41
-16z"/>
<path d="M3853 8050 c0 -25 2 -35 4 -22 2 12 2 32 0 45 -2 12 -4 2 -4 -23z"/>
<path d="M3878 8083 c6 -3 12 -21 13 -41 1 -38 3 -36 13 11 9 39 34 34 39 -8
l4 -35 -1 37 c-1 37 -2 38 -41 39 -22 1 -34 -1 -27 -3z"/>
<path d="M3981 8029 c1 -39 4 -54 8 -39 4 18 13 25 31 25 22 0 25 4 25 35 0
24 -5 35 -15 36 -10 1 -10 -1 -2 -3 22 -8 10 -58 -13 -58 -15 0 -20 7 -20 27
0 14 -3 30 -7 34 -5 4 -7 -22 -7 -57z"/>
<path d="M4103 8084 c23 -7 21 -17 -5 -29 -26 -11 -31 -39 -8 -41 10 -1 10 1
2 3 -17 6 -10 27 11 31 9 2 17 -6 20 -20 3 -13 4 -5 4 17 -2 32 -6 40 -22 42
-16 1 -16 1 -2 -3z"/>
<path d="M4161 8046 l2 -41 6 35 c8 48 38 54 44 8 l4 -33 -1 35 c-1 31 -4 35
-28 36 -26 1 -28 -1 -27 -40z"/>
<path d="M4253 8050 c0 -25 2 -35 4 -22 2 12 2 32 0 45 -2 12 -4 2 -4 -23z"/>
<path d="M4296 8082 c-3 -6 2 -8 13 -5 10 3 22 0 25 -6 5 -7 -4 -11 -23 -11
-34 0 -38 -7 -18 -34 8 -11 21 -16 33 -13 17 4 17 5 -2 6 -12 0 -24 8 -28 16
-4 11 2 15 25 15 24 0 30 4 27 18 -4 19 -42 29 -52 14z"/>
<path d="M4377 8083 c-13 -13 -7 -32 13 -38 27 -9 25 -25 -2 -26 -19 -1 -20
-2 -4 -6 10 -3 23 0 30 7 8 9 6 16 -11 27 -13 9 -23 19 -23 24 0 4 10 10 23
12 20 4 20 4 1 6 -11 0 -24 -2 -27 -6z"/>
<path d="M8614 8050 c1 -31 4 -35 29 -36 25 -1 27 1 26 40 l-2 41 -6 -35 c-8
-48 -38 -54 -44 -8 l-4 33 1 -35z"/>
<path d="M8701 8046 l2 -41 6 35 c4 22 12 35 21 35 9 0 17 -13 21 -35 l6 -35
4 35 c2 23 9 35 19 35 9 0 17 -13 21 -35 6 -34 6 -34 8 -5 1 44 -9 52 -61 52
l-48 -1 1 -40z"/>
<path d="M8937 8084 c-17 -17 -5 -34 24 -34 24 0 30 4 27 18 -3 17 -38 29 -51
16z m43 -14 c0 -5 -9 -10 -20 -10 -11 0 -20 5 -20 10 0 6 9 10 20 10 11 0 20
-4 20 -10z"/>
<path d="M9023 8050 c0 -25 2 -35 4 -22 2 12 2 32 0 45 -2 12 -4 2 -4 -23z"/>
<path d="M9122 8078 c-29 -29 -1 -75 38 -63 17 5 20 13 18 38 -3 35 -33 48
-56 25z m43 -28 c0 -16 -6 -26 -18 -28 -19 -4 -32 20 -23 44 9 25 41 13 41
-16z"/>
<path d="M9305 8079 c-11 -16 -2 -17 25 -2 24 12 24 13 3 13 -12 0 -25 -5 -28
-11z"/>
<path d="M9382 8078 c-16 -16 -15 -43 3 -58 18 -15 47 -10 52 10 4 12 3 12 -5
2 -15 -23 -47 -10 -47 18 0 28 32 41 47 18 8 -10 9 -10 5 2 -5 19 -39 24 -55
8z"/>
<path d="M9471 8046 l2 -41 6 35 c8 48 38 54 44 8 l4 -33 -1 35 c-1 31 -4 35
-28 36 -26 1 -28 -1 -27 -40z"/>
<path d="M9640 8079 l25 -11 -28 -10 c-37 -13 -33 -43 6 -44 26 -1 28 1 25 35
-3 30 -7 36 -28 38 l-25 3 25 -11z m20 -39 c0 -12 -28 -25 -36 -17 -9 9 6 27
22 27 8 0 14 -5 14 -10z"/>
<path d="M9702 8078 c-24 -24 -6 -69 28 -67 9 0 6 4 -8 10 -32 12 -26 51 8 60
21 6 22 7 5 8 -12 1 -26 -4 -33 -11z"/>
<path d="M9827 8083 c-13 -13 -7 -32 13 -38 27 -9 25 -25 -2 -26 -19 -1 -20
-2 -4 -6 10 -3 23 0 30 7 8 9 6 16 -11 27 -13 9 -23 19 -23 24 0 4 10 10 23
12 20 4 20 4 1 6 -11 0 -24 -2 -27 -6z"/>
<path d="M14187 8084 c-14 -14 -7 -26 8 -14 20 17 45 5 45 -20 0 -26 -25 -36
-47 -19 -14 12 -16 12 -11 -1 7 -21 48 -19 62 3 8 12 8 22 0 35 -12 18 -45 28
-57 16z"/>
<path d="M14353 8084 c23 -7 21 -17 -5 -29 -26 -11 -31 -39 -8 -41 10 -1 10 1
2 3 -17 6 -10 27 11 31 9 2 17 -6 20 -20 3 -13 4 -5 4 17 -2 32 -6 40 -22 42
-16 1 -16 1 -2 -3z"/>
<path d="M14592 8078 c-26 -26 -6 -69 33 -67 17 1 17 2 -4 8 -37 10 -38 31 -2
31 17 0 31 4 31 8 0 12 -22 32 -35 32 -6 0 -16 -5 -23 -12z m43 -8 c4 -6 -5
-10 -20 -10 -15 0 -24 4 -20 10 3 6 12 10 20 10 8 0 17 -4 20 -10z"/>
<path d="M14693 8084 c20 -6 23 -24 4 -24 -19 0 -36 -20 -30 -36 3 -8 13 -14
22 -14 14 1 14 2 -2 11 -19 11 -14 29 8 29 7 0 16 -10 18 -22 3 -13 4 -5 4 17
-2 32 -6 40 -22 42 -16 1 -16 1 -2 -3z"/>
<path d="M14793 8074 c-4 -10 0 -20 10 -26 22 -12 22 -25 0 -31 -17 -4 -17 -5
0 -6 24 -1 34 29 14 41 -22 12 -22 25 1 31 16 4 16 5 -1 6 -10 0 -20 -6 -24
-15z"/>
<path d="M14903 8050 c0 -25 2 -35 4 -22 2 12 2 32 0 45 -2 12 -4 2 -4 -23z"/>
<path d="M14941 8046 l2 -41 6 35 c8 48 38 54 44 8 l4 -33 -1 35 c-1 31 -4 35
-28 36 -26 1 -28 -1 -27 -40z"/>
<path d="M15082 8025 l1 -60 6 55 c4 40 11 56 22 58 33 6 34 -53 1 -61 -15 -4
-15 -5 0 -6 10 0 22 8 28 19 16 29 -4 60 -35 58 -24 -2 -25 -5 -23 -63z"/>
<path d="M15173 8050 c0 -25 2 -35 4 -22 2 12 2 32 0 45 -2 12 -4 2 -4 -23z"/>
<path d="M15211 8026 c1 -39 4 -52 8 -36 4 16 13 25 25 25 51 0 43 69 -8 71
-25 1 -26 0 -25 -60z m54 24 c0 -16 -6 -26 -18 -28 -19 -4 -32 20 -23 44 9 25
41 13 41 -16z"/>
<path d="M15311 8076 c-21 -25 -10 -61 19 -63 25 -3 25 -3 3 7 -31 13 -29 30
3 30 19 0 25 5 22 17 -4 23 -31 28 -47 9z m39 -6 c0 -5 -9 -10 -21 -10 -11 0
-17 5 -14 10 3 6 13 10 21 10 8 0 14 -4 14 -10z"/>
<path d="M15433 8050 c0 -25 2 -35 4 -22 2 12 2 32 0 45 -2 12 -4 2 -4 -23z"/>
<path d="M15461 8050 l1 -45 8 35 c5 20 5 39 -1 45 -5 5 -9 -8 -8 -35z"/>
<path d="M15503 8079 c10 -6 17 -23 18 -42 1 -18 3 -24 6 -14 8 30 -6 67 -25
67 -16 -1 -16 -1 1 -11z"/>
<path d="M15561 8076 c-21 -25 -10 -61 19 -63 25 -3 25 -3 3 7 -31 13 -29 30
3 30 19 0 25 5 22 17 -4 23 -31 28 -47 9z m39 -6 c0 -5 -9 -10 -21 -10 -11 0
-17 5 -14 10 3 6 13 10 21 10 8 0 14 -4 14 -10z"/>
<path d="M2510 8033 c0 -6 -8 -14 -17 -16 -10 -3 7 -5 37 -5 30 0 47 2 38 5
-10 2 -18 10 -18 16 0 7 -4 6 -10 -3 -9 -13 -11 -13 -20 0 -6 9 -10 10 -10 3z"/>
<path d="M8933 8030 c2 -8 14 -16 28 -17 19 -1 20 -1 4 4 -11 3 -24 10 -28 17
-6 7 -7 6 -4 -4z"/>
<path d="M9300 8029 c0 -11 25 -22 39 -17 6 1 -1 8 -14 15 -14 6 -25 7 -25 2z"/>
<path d="M6130 7900 c-65 -11 -112 -33 -215 -99 -128 -82 -161 -93 -276 -92
-99 1 -271 21 -392 47 -78 16 -99 17 -77 5 36 -21 337 -64 455 -65 142 0 167
8 301 94 137 89 185 104 308 97 56 -3 157 -17 226 -31 137 -28 300 -34 440
-16 119 16 300 51 300 60 0 4 -29 2 -64 -6 -277 -58 -491 -65 -701 -22 -153
31 -243 39 -305 28z"/>
<path d="M17227 7895 c-20 -7 -67 -39 -104 -72 -38 -33 -82 -68 -100 -77 -38
-19 -123 -21 -277 -5 -82 9 -129 9 -193 0 -86 -12 -249 -58 -240 -67 3 -3 41
6 84 19 120 39 217 49 343 37 171 -16 251 -15 287 3 17 9 58 40 90 68 148 131
195 123 317 -51 63 -89 103 -122 150 -122 46 0 82 21 141 82 118 122 161 134
325 86 124 -37 189 -42 272 -22 74 17 232 75 225 82 -3 3 -33 -7 -68 -20 -82
-33 -212 -66 -258 -66 -20 0 -61 7 -91 15 -197 55 -218 59 -262 46 -29 -9 -66
-35 -118 -85 -94 -91 -116 -106 -158 -106 -52 0 -82 24 -157 126 -93 127 -137
154 -208 129z"/>
<path d="M290 7800 l0 -60 60 0 60 0 0 60 0 60 -60 0 -60 0 0 -60z m88 43
c-16 -2 -40 -2 -55 0 -16 2 -3 4 27 4 30 0 43 -2 28 -4z m22 -28 c0 -9 -9 -15
-22 -16 l-23 0 23 -9 c25 -10 30 -40 7 -40 -8 0 -15 6 -15 13 0 8 -4 7 -10 -3
-9 -13 -11 -13 -20 0 -6 10 -10 11 -10 3 0 -7 -7 -13 -15 -13 -8 0 -15 6 -15
14 0 16 27 29 41 20 5 -3 9 0 9 5 0 6 -11 11 -25 11 -16 0 -25 6 -25 15 0 11
12 15 50 15 38 0 50 -4 50 -15z"/>
<path d="M548 7839 c-21 -12 -24 -59 -6 -77 7 -7 21 -12 33 -11 17 1 16 2 -5
8 -19 5 -26 15 -28 38 -3 29 0 33 30 42 20 5 25 9 13 10 -11 0 -28 -4 -37 -10z"/>
<path d="M624 7806 c-11 -29 0 -51 26 -51 21 0 25 5 25 30 0 24 -5 31 -23 33
-13 2 -24 -3 -28 -12z m46 -21 c0 -18 -5 -25 -20 -25 -15 0 -20 7 -20 25 0 18
5 25 20 25 15 0 20 -7 20 -25z"/>
<path d="M701 7780 c1 -34 1 -35 8 -6 6 29 31 49 31 26 0 -10 3 -10 15 0 19
16 35 4 36 -28 0 -15 3 -21 6 -14 3 7 2 23 -1 36 -5 21 -11 24 -51 23 -45 -2
-45 -2 -44 -37z"/>
<path d="M821 7765 c1 -27 4 -40 6 -29 3 15 10 20 22 17 10 -3 21 -1 24 4 3 5
-4 9 -16 9 -16 -1 -22 5 -22 19 0 14 6 20 22 19 12 0 20 3 17 8 -3 4 -16 7
-29 6 -23 -2 -25 -6 -24 -53z"/>
<path d="M910 7816 c0 -2 9 -6 20 -9 11 -3 20 -1 20 4 0 5 -9 9 -20 9 -11 0
-20 -2 -20 -4z"/>
<path d="M983 7785 c0 -22 2 -30 4 -17 2 12 2 30 0 40 -3 9 -5 -1 -4 -23z"/>
<path d="M1007 7813 c6 -4 13 -22 16 -38 4 -27 5 -27 3 4 0 21 -7 36 -16 38
-10 3 -11 2 -3 -4z"/>
<path d="M1063 7785 c0 -22 2 -30 4 -17 2 12 2 30 0 40 -3 9 -5 -1 -4 -23z"/>
<path d="M1096 7811 c-3 -5 3 -7 14 -4 11 3 20 1 20 -5 0 -6 -12 -13 -27 -15
-26 -4 -25 -4 5 -6 27 -1 33 2 30 16 -4 20 -33 29 -42 14z"/>
<path d="M1164 7808 c-4 -6 0 -16 9 -23 22 -16 21 -22 0 -28 -16 -4 -16 -5 -1
-6 24 -2 34 20 15 34 -22 16 -21 22 1 28 15 4 15 5 0 6 -9 0 -20 -4 -24 -11z"/>
<path d="M2903 7794 c-7 -3 -13 -12 -13 -20 0 -10 7 -13 24 -8 48 12 86 -32
54 -64 -7 -7 -25 -12 -40 -12 -18 0 -28 -5 -28 -15 0 -9 9 -15 23 -15 34 0 67
-28 67 -56 0 -32 -42 -51 -82 -36 -24 9 -28 8 -28 -8 0 -47 125 -34 144 15 16
44 -7 95 -45 95 -9 0 -7 5 6 12 11 6 23 16 27 22 13 19 9 63 -7 76 -16 13 -83
22 -102 14z"/>
<path d="M3124 7785 c-34 -23 -47 -68 -42 -141 4 -58 8 -70 32 -90 35 -30 67
-30 103 0 25 22 28 31 31 105 4 78 3 81 -26 111 -33 33 -66 38 -98 15z m68
-32 c25 -22 26 -148 1 -175 -20 -22 -31 -23 -55 -1 -24 21 -26 138 -2 171 18
26 31 28 56 5z"/>
<path d="M8525 7775 c-30 -29 -32 -56 -5 -80 18 -17 19 -20 5 -28 -26 -14 -38
-57 -25 -88 27 -65 133 -64 161 3 13 33 1 74 -26 84 -13 5 -12 10 5 31 11 14
20 32 20 40 0 26 -47 63 -80 63 -19 0 -40 -9 -55 -25z m85 -20 c26 -32 -13
-81 -47 -59 -35 22 -23 74 17 74 10 0 23 -7 30 -15z m4 -111 c9 -8 16 -23 16
-31 0 -23 -29 -53 -51 -53 -23 0 -49 26 -49 50 0 10 7 26 16 34 8 9 24 16 34
16 10 0 26 -7 34 -16z"/>
<path d="M8750 7787 c-61 -31 -60 -122 2 -148 26 -11 35 -10 59 4 25 14 29 14
29 1 0 -51 -49 -90 -98 -77 -29 7 -31 -23 -2 -32 59 -19 124 34 135 108 7 48
-8 118 -29 136 -22 18 -69 22 -96 8z m70 -37 c11 -11 20 -29 20 -39 0 -18 -34
-51 -52 -51 -14 0 -48 39 -48 55 0 17 35 55 50 55 6 0 19 -9 30 -20z"/>
<path d="M14153 7790 c-13 -5 -23 -18 -23 -29 0 -18 2 -19 28 -5 35 18 47 18
66 -2 27 -27 18 -50 -44 -112 -43 -42 -60 -67 -60 -86 0 -26 0 -26 80 -26 64
0 80 3 80 15 0 11 -13 15 -54 15 -30 0 -57 4 -60 9 -3 5 15 28 40 51 77 71 91
114 49 155 -25 26 -62 31 -102 15z"/>
<path d="M14375 7788 c-11 -6 -23 -16 -27 -22 -13 -19 -9 -63 7 -76 14 -12 13
-15 -5 -35 -25 -27 -26 -66 -1 -96 25 -31 98 -34 130 -5 27 24 27 73 1 101
-18 20 -19 23 -5 35 16 13 20 57 7 76 -20 31 -73 42 -107 22z m65 -32 c6 -8
10 -25 8 -38 -2 -18 -9 -23 -33 -23 -26 0 -30 4 -33 29 -5 41 32 62 58 32z m8
-108 c21 -21 15 -67 -12 -79 -34 -16 -66 3 -66 39 0 33 16 52 45 52 12 0 26
-5 33 -12z"/>
<path d="M14585 7788 c-11 -6 -23 -16 -27 -22 -13 -19 -9 -63 7 -76 14 -12 13
-15 -5 -35 -25 -27 -26 -66 -1 -96 25 -31 98 -34 130 -5 27 24 27 73 1 101
-18 20 -19 23 -5 35 16 13 20 57 7 76 -20 31 -73 42 -107 22z m65 -32 c6 -8
10 -25 8 -38 -2 -18 -9 -23 -33 -23 -26 0 -30 4 -33 29 -5 41 32 62 58 32z m8
-108 c21 -21 15 -67 -12 -79 -34 -16 -66 3 -66 39 0 33 16 52 45 52 12 0 26
-5 33 -12z"/>
<path d="M905 7780 c-3 -5 -3 -14 0 -20 8 -12 32 -13 39 -1 4 5 -3 7 -14 4
-11 -3 -20 -1 -20 5 0 6 10 13 23 15 22 4 22 4 0 6 -12 0 -25 -3 -28 -9z"/>
<path d="M1098 7758 c6 -6 18 -8 28 -6 14 3 12 5 -9 10 -19 3 -25 2 -19 -4z"/>
<path d="M290 7360 l0 -60 60 0 60 0 0 60 0 60 -60 0 -60 0 0 -60z m110 0 l0
-50 -50 0 -50 0 0 50 0 50 50 0 50 0 0 -50z"/>
<path d="M318 7394 c-5 -4 -8 -23 -8 -43 0 -25 3 -32 11 -24 6 6 9 25 7 43 -2
17 -6 28 -10 24z"/>
<path d="M346 7391 c-4 -7 -5 -15 -2 -18 9 -9 19 4 14 18 -4 11 -6 11 -12 0z"/>
<path d="M375 7387 c-4 -10 -5 -21 -1 -24 10 -10 18 4 13 24 -4 17 -4 17 -12
0z"/>
<path d="M537 7402 c6 -4 13 -28 16 -52 l4 -45 1 47 c2 35 6 48 20 51 9 3 1 5
-18 6 -19 0 -30 -3 -23 -7z"/>
<path d="M722 7360 c0 -32 2 -47 7 -37 6 17 8 17 20 3 7 -9 18 -16 24 -16 6 0
1 7 -11 16 -23 16 -23 17 -5 38 18 21 18 21 -4 3 -21 -19 -22 -19 -26 15 -2
21 -4 13 -5 -22z"/>
<path d="M613 7374 c23 -7 22 -20 -3 -27 -25 -6 -27 -37 -2 -36 10 0 12 3 5 6
-18 7 -16 23 1 23 8 0 17 -8 20 -17 2 -10 4 -2 3 17 -2 27 -7 35 -22 37 -16 1
-16 1 -2 -3z"/>
<path d="M664 7368 c-4 -6 0 -16 9 -23 22 -16 21 -22 0 -28 -16 -4 -16 -5 -1
-6 24 -2 34 20 15 34 -22 16 -21 22 1 28 15 4 15 5 0 6 -9 0 -20 -4 -24 -11z"/>
<path d="M794 7368 c-4 -6 0 -16 9 -23 22 -16 21 -22 0 -28 -16 -4 -16 -5 -1
-6 24 -2 34 20 15 34 -22 16 -21 22 1 28 15 4 15 5 0 6 -9 0 -20 -4 -24 -11z"/>
<path d="M330 6983 c-18 -6 -40 -33 -40 -47 0 -6 7 0 16 12 8 12 22 22 30 22
8 0 14 5 14 10 0 6 -1 10 -2 9 -2 0 -10 -3 -18 -6z"/>
<path d="M370 6970 c8 -5 20 -10 25 -10 6 0 3 5 -5 10 -8 5 -19 10 -25 10 -5
0 -3 -5 5 -10z"/>
<path d="M928 6947 c-7 -21 6 -70 20 -73 7 -1 8 0 2 3 -12 6 -13 50 -1 55 5 2
3 8 -4 15 -10 9 -14 9 -17 0z"/>
<path d="M606 6932 c-3 -5 5 -8 17 -8 16 1 22 -5 22 -19 0 -14 -6 -20 -22 -19
-12 0 -20 -3 -17 -8 17 -27 59 9 49 42 -6 20 -39 28 -49 12z"/>
<path d="M684 6926 c-11 -28 1 -51 24 -50 29 1 23 -18 -9 -27 -21 -6 -21 -7
-3 -8 29 -1 44 18 44 59 0 31 -3 36 -25 38 -15 1 -28 -4 -31 -12z m41 -21 c0
-11 -8 -21 -17 -23 -14 -3 -18 3 -18 23 0 20 4 26 18 23 9 -2 17 -12 17 -23z"/>
<path d="M764 6926 c-14 -37 22 -74 47 -49 6 6 1 9 -13 9 -14 -1 -24 6 -26 17
-4 22 27 35 40 16 8 -12 9 -11 5 1 -5 20 -46 25 -53 6z"/>
<path d="M893 6905 c0 -22 2 -30 4 -17 2 12 2 30 0 40 -3 9 -5 -1 -4 -23z"/>
<path d="M351 6926 c12 -10 59 -15 59 -6 0 5 -14 10 -32 10 -17 0 -29 -2 -27
-4z"/>
<path d="M294 6891 c9 -16 25 -31 37 -34 24 -7 69 8 69 22 0 5 -12 4 -27 -4
-31 -16 -62 -5 -70 26 -3 10 -9 19 -14 19 -5 0 -3 -13 5 -29z"/>
<path d="M850 6880 c0 -6 7 -10 15 -10 8 0 15 2 15 4 0 2 -7 6 -15 10 -8 3
-15 1 -15 -4z"/>
<path d="M548 6873 c6 -2 18 -2 25 0 6 3 1 5 -13 5 -14 0 -19 -2 -12 -5z"/>
<path d="M8073 6818 c-55 -27 -50 -114 8 -138 89 -37 151 99 63 139 -30 13
-42 13 -71 -1z m62 -8 c52 -20 52 -100 0 -120 -55 -21 -106 30 -85 85 8 21 24
33 57 44 1 1 13 -3 28 -9z"/>
<path d="M8094 6775 c-7 -18 3 -35 22 -35 8 0 12 -5 9 -11 -4 -6 -14 -8 -24
-4 -12 5 -13 4 -4 -6 10 -10 16 -9 29 2 15 12 14 15 -5 30 -25 20 -28 34 -5
25 8 -3 12 -2 9 4 -9 15 -25 12 -31 -5z"/>
<path d="M2438 6812 c-15 -3 -18 -15 -18 -68 l0 -64 70 0 70 0 0 65 c0 45 -4
65 -12 66 -46 4 -96 4 -110 1z m112 -29 c0 -9 -17 -13 -60 -13 -43 0 -60 4
-60 13 0 10 17 13 60 13 43 0 60 -3 60 -13z m0 -58 l0 -35 -60 0 -60 0 0 35 0
35 60 0 60 0 0 -35z"/>
<path d="M2782 6758 c-2 -39 1 -48 18 -53 32 -10 50 12 48 59 l-1 41 -4 -37
c-4 -39 -28 -67 -43 -52 -5 5 -10 27 -13 49 l-4 40 -1 -47z"/>
<path d="M3470 6750 l0 -50 33 1 c23 1 26 3 10 6 -27 5 -31 39 -5 46 16 4 16
5 0 6 -10 0 -18 7 -18 15 0 8 8 17 18 19 10 3 6 5 -10 6 -27 1 -28 -1 -28 -49z"/>
<path d="M8370 6750 c0 -43 3 -50 20 -50 20 0 60 32 60 48 0 20 -34 52 -56 52
-22 0 -24 -4 -24 -50z m44 34 c35 -13 14 -74 -25 -74 -5 0 -9 18 -9 40 0 40 5
45 34 34z"/>
<path d="M8610 6750 c0 -27 5 -50 10 -50 6 0 10 23 10 50 0 28 -4 50 -10 50
-5 0 -10 -22 -10 -50z"/>
<path d="M3772 6773 c-8 -8 -9 -13 -2 -13 5 0 10 -13 10 -30 0 -16 4 -30 9
-30 4 0 6 12 3 26 -2 14 0 29 6 33 6 4 6 10 -2 17 -9 8 -15 7 -24 -3z"/>
<path d="M2870 6720 c0 -27 5 -50 10 -50 6 0 10 23 10 50 0 28 -4 50 -10 50
-5 0 -10 -22 -10 -50z"/>
<path d="M2910 6763 c14 -7 13 -50 -2 -56 -8 -4 -9 -6 -2 -6 6 -1 17 6 25 15
14 17 3 46 -19 50 -7 1 -8 0 -2 -3z"/>
<path d="M2960 6749 c-13 -24 2 -49 29 -49 14 1 14 2 -1 11 -10 5 -18 16 -18
24 0 8 8 19 18 24 16 10 16 10 0 11 -10 0 -22 -9 -28 -21z"/>
<path d="M3033 6763 c-18 -7 -16 -50 3 -57 25 -10 33 -7 44 15 18 33 -10 58
-47 42z m37 -28 c0 -25 -23 -35 -35 -15 -10 16 2 40 20 40 9 0 15 -9 15 -25z"/>
<path d="M3111 6731 c1 -35 2 -35 8 -7 9 41 31 46 31 7 0 -17 5 -31 11 -31 6
0 9 14 7 33 -3 27 -7 32 -30 33 -26 1 -28 -2 -27 -35z"/>
<path d="M3187 6759 c6 -8 13 -25 16 -39 4 -17 5 -15 4 9 -1 21 -8 36 -17 39
-12 4 -13 2 -3 -9z"/>
<path d="M3233 6735 c0 -22 2 -30 4 -17 2 12 2 30 0 40 -3 9 -5 -1 -4 -23z"/>
<path d="M3271 6730 c1 -34 1 -34 8 -6 9 41 31 46 31 7 0 -17 5 -31 10 -31 12
0 13 40 2 57 -4 7 -18 11 -30 10 -18 -1 -22 -7 -21 -37z"/>
<path d="M3354 6756 c-8 -22 -1 -49 14 -54 11 -3 11 -1 1 17 -10 15 -11 23 -2
32 18 18 33 1 30 -34 -2 -24 -8 -33 -27 -38 -14 -4 -18 -7 -8 -8 36 -2 48 10
48 53 0 37 -3 42 -25 44 -15 1 -28 -4 -31 -12z"/>
<path d="M3541 6769 c-2 -14 22 -69 30 -69 5 0 9 5 9 10 0 6 -4 10 -8 10 -5 0
-13 12 -19 28 -6 15 -11 24 -12 21z"/>
<path d="M3586 6755 c-9 -26 -7 -32 5 -12 6 10 9 21 6 23 -2 3 -7 -2 -11 -11z"/>
<path d="M3620 6755 c-17 -20 -2 -49 26 -52 13 -2 11 1 -6 9 l-25 12 28 4 c20
2 27 8 25 20 -4 23 -32 26 -48 7z m35 -5 c3 -5 -3 -10 -15 -10 -12 0 -18 5
-15 10 3 6 10 10 15 10 5 0 12 -4 15 -10z"/>
<path d="M3691 6730 c1 -34 1 -34 8 -6 9 41 31 46 31 7 0 -17 5 -31 10 -31 12
0 13 40 2 57 -4 7 -18 11 -30 10 -18 -1 -22 -7 -21 -37z"/>
<path d="M3824 6758 c-4 -6 0 -16 9 -23 22 -16 21 -22 0 -28 -16 -4 -16 -5 -1
-6 24 -2 34 20 15 34 -22 16 -21 22 1 28 15 4 15 5 0 6 -9 0 -20 -4 -24 -11z"/>
<path d="M8470 6755 c-17 -20 -2 -49 26 -52 13 -2 11 1 -6 9 l-25 12 28 4 c20
2 27 8 25 20 -4 23 -32 26 -48 7z m35 -5 c3 -5 -3 -10 -15 -10 -12 0 -18 5
-15 10 3 6 10 10 15 10 5 0 12 -4 15 -10z"/>
<path d="M8564 6757 c18 -13 18 -14 -3 -20 -31 -8 -28 -37 4 -35 22 2 26 7 23
33 -2 21 -9 31 -23 33 -19 4 -20 3 -1 -11z m11 -37 c-3 -5 -10 -10 -16 -10 -5
0 -9 5 -9 10 0 6 7 10 16 10 8 0 12 -4 9 -10z"/>
<path d="M8654 6758 c-4 -6 0 -16 9 -23 22 -16 21 -22 0 -28 -16 -4 -16 -5 -1
-6 24 -2 34 20 15 34 -22 16 -21 22 1 28 15 4 15 5 0 6 -9 0 -20 -4 -24 -11z"/>
<path d="M8417 6183 c-3 -5 5 -8 18 -8 13 0 21 3 18 8 -2 4 -10 7 -18 7 -8 0
-16 -3 -18 -7z"/>
<path d="M9328 6183 c7 -3 16 -2 19 1 4 3 -2 6 -13 5 -11 0 -14 -3 -6 -6z"/>
<path d="M8417 6138 c2 -5 10 -8 18 -8 8 0 16 3 18 8 3 4 -5 7 -18 7 -13 0
-21 -3 -18 -7z"/>
<path d="M9158 6133 c6 -2 18 -2 25 0 6 3 1 5 -13 5 -14 0 -19 -2 -12 -5z"/>
<path d="M4262 3718 l1 -53 6 44 6 45 28 -42 c15 -23 29 -42 32 -42 3 0 4 24
3 53 l-1 52 -6 -43 -6 -43 -25 41 c-14 22 -28 40 -32 40 -5 0 -7 -24 -6 -52z"/>
<path d="M4370 3726 c-27 -33 18 -72 48 -42 13 13 14 20 6 34 -15 23 -38 26
-54 8z m48 -19 c4 -20 -25 -34 -40 -19 -15 15 -1 44 19 40 10 -2 19 -11 21
-21z"/>
<path d="M4533 3705 c0 -22 2 -30 4 -17 2 12 2 30 0 40 -3 9 -5 -1 -4 -23z"/>
<path d="M4573 3690 c0 -30 1 -47 4 -37 2 9 10 17 18 17 20 0 37 27 30 50 -3
11 -14 20 -23 20 -13 0 -13 -2 3 -14 21 -15 15 -46 -9 -46 -9 0 -16 12 -19 33
-2 18 -4 8 -4 -23z"/>
<path d="M4656 3731 c-4 -5 3 -7 14 -4 23 6 26 13 6 13 -8 0 -17 -4 -20 -9z"/>
<path d="M4714 3726 c-14 -37 22 -74 47 -49 6 6 1 9 -13 9 -14 -1 -24 6 -26
17 -4 22 27 35 40 16 8 -12 9 -11 5 1 -5 20 -46 25 -53 6z"/>
<path d="M4791 3701 c1 -27 3 -30 6 -11 7 35 19 46 38 30 10 -8 15 -9 15 -1 0
6 6 11 14 11 9 0 17 -13 19 -32 l5 -33 -2 35 c-1 35 -1 35 -48 36 l-48 1 1
-36z"/>
<path d="M4923 3705 c0 -22 2 -30 4 -17 2 12 2 30 0 40 -3 9 -5 -1 -4 -23z"/>
<path d="M4953 3705 c0 -22 2 -30 4 -17 2 12 2 30 0 40 -3 9 -5 -1 -4 -23z"/>
<path d="M4970 3736 c0 -2 7 -6 15 -10 8 -3 15 -1 15 4 0 6 -7 10 -15 10 -8 0
-15 -2 -15 -4z"/>
<path d="M5036 3732 c-3 -5 5 -8 17 -8 26 1 36 -31 11 -41 -11 -4 -22 1 -30
12 -8 10 -14 14 -14 8 0 -17 24 -32 48 -30 18 1 22 7 22 32 0 25 -4 31 -25 33
-13 1 -26 -2 -29 -6z"/>
<path d="M5156 3731 c-3 -5 3 -7 14 -4 11 3 20 1 20 -5 0 -6 -12 -13 -27 -15
-26 -4 -25 -4 5 -6 27 -1 33 2 30 16 -4 20 -33 29 -42 14z"/>
<path d="M5296 3731 c-3 -5 3 -7 14 -4 11 3 20 1 20 -5 0 -6 -12 -13 -27 -15
-26 -4 -25 -4 5 -6 27 -1 33 2 30 16 -4 20 -33 29 -42 14z"/>
<path d="M5361 3701 c1 -36 1 -36 8 -6 8 40 38 46 44 8 4 -28 4 -28 3 2 -1 26
-5 30 -28 31 -26 1 -28 -2 -27 -35z"/>
<path d="M5438 3733 c6 -2 18 -2 25 0 6 3 1 5 -13 5 -14 0 -19 -2 -12 -5z"/>
<path d="M5498 3733 c7 -3 16 -2 19 1 4 3 -2 6 -13 5 -11 0 -14 -3 -6 -6z"/>
<path d="M5256 3715 c-9 -26 -7 -32 5 -12 6 10 9 21 6 23 -2 3 -7 -2 -11 -11z"/>
<path d="M5503 3707 c21 -17 21 -24 2 -30 -12 -4 -11 -5 1 -3 27 2 28 23 2 36
-21 10 -21 10 -5 -3z"/>
<path d="M5230 3691 c0 -6 4 -13 10 -16 6 -3 7 1 4 9 -7 18 -14 21 -14 7z"/>
<path d="M4490 3680 c0 -6 7 -10 15 -10 8 0 15 2 15 4 0 2 -7 6 -15 10 -8 3
-15 1 -15 -4z"/>
<path d="M4658 3678 c5 -5 16 -8 23 -6 8 3 3 7 -10 11 -17 4 -21 3 -13 -5z"/>
<path d="M5158 3678 c6 -6 18 -8 28 -6 14 3 12 5 -9 10 -19 3 -25 2 -19 -4z"/>
<path d="M5298 3678 c6 -6 18 -8 28 -6 14 3 12 5 -9 10 -19 3 -25 2 -19 -4z"/>
<path d="M5050 3650 c-23 -7 -23 -8 -3 -9 12 -1 25 4 28 9 3 6 5 10 3 9 -2 -1
-14 -5 -28 -9z"/>
<path d="M2460 1880 c0 -5 23 -10 50 -10 28 0 50 5 50 10 0 6 -22 10 -50 10
-27 0 -50 -4 -50 -10z"/>
<path d="M2740 1830 l0 -50 33 1 c23 1 26 3 10 6 -20 4 -23 11 -23 49 0 24 -4
44 -10 44 -5 0 -10 -22 -10 -50z"/>
<path d="M3171 1843 c-7 -21 -15 -45 -17 -53 -4 -11 -1 -10 9 3 8 9 21 17 30
17 9 0 21 -8 27 -17 9 -15 10 -14 6 9 -9 43 -25 78 -34 78 -5 0 -14 -17 -21
-37z m39 -15 c0 -5 -7 -8 -15 -8 -15 0 -20 21 -8 33 7 7 23 -11 23 -25z"/>
<path d="M2888 1857 c-8 -22 7 -70 22 -75 12 -4 13 -2 3 9 -15 15 -17 46 -4
51 5 2 3 8 -4 15 -10 9 -14 9 -17 0z"/>
<path d="M3518 1859 c-2 -6 -2 -26 0 -45 3 -24 9 -34 21 -33 10 0 11 2 4 6
-15 5 -18 50 -4 55 5 2 3 8 -4 15 -9 9 -15 9 -17 2z"/>
<path d="M3068 1855 c-8 -8 6 -68 17 -72 6 -2 10 14 9 34 -1 34 -13 51 -26 38z"/>
<path d="M3318 1855 c-8 -8 6 -68 17 -72 6 -2 10 14 9 34 -1 34 -13 51 -26 38z"/>
<path d="M2834 1837 c18 -13 18 -14 -3 -20 -31 -8 -28 -37 4 -35 22 2 26 7 23
33 -2 21 -9 31 -23 33 -19 4 -20 3 -1 -11z m11 -37 c-3 -5 -10 -10 -16 -10 -5
0 -9 5 -9 10 0 6 7 10 16 10 8 0 12 -4 9 -10z"/>
<path d="M2940 1835 c-17 -20 -2 -49 26 -52 13 -2 11 1 -6 9 l-25 12 28 4 c20
2 27 8 25 20 -4 23 -32 26 -48 7z m35 -5 c3 -5 -3 -10 -15 -10 -12 0 -18 5
-15 10 3 6 10 10 15 10 5 0 12 -4 15 -10z"/>
<path d="M3010 1831 c0 -10 8 -22 18 -26 16 -7 15 -8 -3 -15 -16 -7 -17 -9 -3
-9 26 -1 33 20 12 36 -16 12 -17 15 -4 23 13 8 12 10 -2 10 -11 0 -18 -8 -18
-19z"/>
<path d="M3263 1843 c-7 -2 -13 -15 -13 -28 0 -22 18 -36 43 -34 7 0 2 4 -10
9 -13 5 -23 16 -23 25 0 9 10 20 23 25 12 5 15 9 7 9 -8 -1 -21 -3 -27 -6z"/>
<path d="M3373 1815 c0 -22 2 -30 4 -17 2 12 2 30 0 40 -3 9 -5 -1 -4 -23z"/>
<path d="M3401 1849 c-2 -14 22 -69 30 -69 5 0 9 5 9 10 0 6 -4 10 -8 10 -5 0
-13 12 -19 28 -6 15 -11 24 -12 21z"/>
<path d="M3446 1835 c-9 -26 -7 -32 5 -12 6 10 9 21 6 23 -2 3 -7 -2 -11 -11z"/>
<path d="M3483 1815 c0 -22 2 -30 4 -17 2 12 2 30 0 40 -3 9 -5 -1 -4 -23z"/>
<path d="M3560 1815 c0 -19 5 -35 10 -35 6 0 10 16 10 35 0 19 -4 35 -10 35
-5 0 -10 -16 -10 -35z"/>
<path d="M3604 1836 c-11 -28 1 -51 26 -53 l25 -3 -25 12 -25 12 28 4 c29 4
33 12 15 30 -16 16 -37 15 -44 -2z m41 -6 c3 -5 -3 -10 -15 -10 -12 0 -18 5
-15 10 3 6 10 10 15 10 5 0 12 -4 15 -10z"/>
<path d="M3674 1838 c-4 -6 0 -16 9 -23 22 -16 21 -22 0 -28 -16 -4 -16 -5 -1
-6 24 -2 34 20 15 34 -22 16 -21 22 1 28 15 4 15 5 0 6 -9 0 -20 -4 -24 -11z"/>
<path d="M2460 1830 c0 -5 23 -10 50 -10 28 0 50 5 50 10 0 6 -22 10 -50 10
-27 0 -50 -4 -50 -10z"/>
<path d="M2460 1780 c0 -5 23 -10 50 -10 28 0 50 5 50 10 0 6 -22 10 -50 10
-27 0 -50 -4 -50 -10z"/>
<path d="M3076 1340 c-18 -45 -21 -75 -5 -47 5 9 17 17 26 17 9 0 22 -8 30
-17 10 -13 13 -14 9 -3 -2 8 -10 32 -17 53 -7 20 -15 37 -19 37 -5 0 -15 -18
-24 -40z m34 -6 c0 -8 -7 -14 -15 -14 -17 0 -18 2 -9 24 7 18 24 12 24 -10z"/>
<path d="M3336 1371 c-3 -5 3 -7 14 -4 26 7 26 -18 0 -42 -30 -28 -25 -45 13
-44 31 2 31 2 3 6 l-28 5 22 23 c12 13 20 31 18 41 -4 21 -33 31 -42 15z"/>
<path d="M3427 1347 l-28 -37 25 0 c15 0 26 -7 29 -17 4 -17 5 -17 6 0 0 9 7
17 14 17 9 0 9 2 0 8 -6 4 -13 20 -15 36 l-3 30 -28 -37z m23 -7 c0 -11 -7
-20 -15 -20 -13 0 -13 3 -3 20 7 11 14 20 15 20 2 0 3 -9 3 -20z"/>
<path d="M3566 1371 c-4 -5 3 -7 14 -4 27 7 27 -27 0 -50 -29 -25 -25 -37 13
-36 30 2 30 2 4 6 l-28 4 26 31 c20 24 23 33 14 44 -13 16 -35 18 -43 5z"/>
<path d="M3653 1373 c-19 -7 -17 -82 2 -89 36 -14 62 55 33 84 -13 13 -16 13
-35 5z m32 -23 c8 -26 -3 -62 -18 -57 -7 2 -13 14 -15 26 -7 45 20 71 33 31z"/>
<path d="M3725 1371 c-3 -6 0 -8 8 -5 25 9 30 -16 10 -39 -37 -40 -37 -47 -1
-46 23 1 26 3 11 6 -29 5 -29 19 -2 33 13 7 19 19 17 33 -3 23 -32 35 -43 18z"/>
<path d="M3813 1350 c-28 -35 -28 -40 -3 -40 11 0 20 -7 20 -15 0 -21 18 -19
22 3 5 24 -3 82 -11 81 -3 0 -16 -13 -28 -29z m13 -27 c-10 -10 -19 5 -10 18
6 11 8 11 12 0 2 -7 1 -15 -2 -18z"/>
<path d="M4020 1370 c-9 -6 -10 -10 -3 -10 7 0 14 -19 16 -42 3 -41 4 -41 5
10 1 28 1 52 0 52 -2 0 -10 -5 -18 -10z"/>
<path d="M4083 1372 c-35 -22 -16 -103 21 -89 20 8 18 49 -2 53 -7 1 -8 0 -2
-3 16 -7 12 -43 -5 -43 -11 0 -15 11 -15 35 0 28 5 38 23 45 12 5 15 9 7 9 -8
0 -20 -3 -27 -7z"/>
<path d="M4184 1364 c-10 -8 -13 -13 -6 -9 8 4 12 -5 12 -34 0 -23 5 -41 10
-41 6 0 10 23 10 50 0 28 -1 50 -3 50 -2 0 -12 -7 -23 -16z"/>
<path d="M4240 1370 c-9 -6 -10 -10 -3 -10 7 0 14 -19 16 -42 3 -41 4 -41 5
10 1 28 1 52 0 52 -2 0 -10 -5 -18 -10z"/>
<path d="M3161 1296 c1 -31 4 -43 7 -31 4 11 16 20 27 20 16 0 20 7 20 30 0
26 -4 30 -27 31 -27 1 -28 -1 -27 -50z m46 28 c8 -21 -13 -42 -28 -27 -13 13
-5 43 11 43 6 0 13 -7 17 -16z"/>
<path d="M3241 1310 c1 -27 3 -29 6 -10 2 14 11 30 20 37 13 10 13 12 -6 10
-17 -1 -21 -7 -20 -37z"/>
<path d="M2666 1324 c-19 -18 -21 -47 -4 -42 6 2 18 14 25 25 18 26 1 40 -21
17z"/>
<path d="M3928 1313 c7 -3 16 -2 19 1 4 3 -2 6 -13 5 -11 0 -14 -3 -6 -6z"/>
<path d="M2563 1254 c-13 -13 -23 -35 -23 -50 0 -31 37 -113 51 -115 5 -1 32
-1 59 -1 71 0 68 -1 84 31 14 26 14 30 1 41 -17 14 -20 53 -5 80 14 26 -1 33
-79 35 -56 1 -69 -2 -88 -21z"/>
<path d="M3060 1070 c0 -27 5 -50 10 -50 6 0 10 12 10 28 0 15 3 37 6 50 5 16
2 22 -10 22 -13 0 -16 -11 -16 -50z"/>
<path d="M3133 1083 l-15 -37 -14 24 c-8 15 -13 19 -13 10 0 -8 6 -26 13 -39
l13 -23 16 38 16 39 0 -37 c1 -21 6 -38 11 -38 6 0 10 23 10 50 0 59 -15 65
-37 13z"/>
<path d="M3303 1070 c-1 -39 1 -47 6 -26 9 41 31 46 31 7 0 -17 5 -31 10 -31
12 0 13 40 1 59 -5 8 -16 11 -24 8 -11 -4 -17 1 -20 16 -2 12 -4 -3 -4 -33z"/>
<path d="M3520 1070 c0 -27 5 -50 10 -50 6 0 10 23 10 50 0 28 -4 50 -10 50
-5 0 -10 -22 -10 -50z"/>
<path d="M3607 1113 c-14 -13 -6 -42 13 -48 26 -8 25 -23 -2 -35 l-23 -9 23 0
c32 -1 40 28 14 50 -28 22 -27 27 1 39 21 8 21 9 1 9 -11 1 -24 -2 -27 -6z"/>
<path d="M4360 1101 c0 -14 -5 -18 -19 -14 -10 3 -21 1 -24 -4 -3 -5 4 -9 16
-9 16 1 22 -5 22 -19 0 -14 -6 -20 -22 -19 -12 0 -20 -3 -17 -8 3 -4 16 -7 29
-6 23 2 25 7 25 50 0 26 -2 48 -5 48 -3 0 -5 -9 -5 -19z"/>
<path d="M4430 1070 c0 -27 5 -50 10 -50 6 0 10 12 10 26 0 20 4 25 22 22 14
-2 25 -13 29 -28 5 -17 7 -7 7 30 -1 30 -3 45 -5 33 -6 -31 -53 -33 -53 -3 0
11 -4 20 -10 20 -5 0 -10 -22 -10 -50z"/>
<path d="M4739 1103 c0 -10 -2 -30 -4 -45 -2 -15 1 -30 6 -33 5 -4 9 16 9 44
0 28 -2 51 -5 51 -3 0 -5 -8 -6 -17z"/>
<path d="M4972 1103 c-4 -10 -5 -34 -1 -53 l6 -35 2 33 c0 18 6 32 14 32 8 0
7 4 -3 10 -13 9 -13 11 0 20 9 6 11 10 3 10 -7 0 -16 -8 -21 -17z"/>
<path d="M5189 1103 c0 -10 -2 -30 -4 -45 -2 -15 1 -30 6 -33 5 -4 9 16 9 44
0 28 -2 51 -5 51 -3 0 -5 -8 -6 -17z"/>
<path d="M5276 1104 c-22 -21 -20 -61 3 -74 24 -12 51 -13 51 -2 0 5 -10 8
-21 8 -29 -1 -48 28 -33 52 7 9 21 17 33 16 11 0 21 3 21 8 0 14 -38 9 -54 -8z"/>
<path d="M5877 1113 c-14 -13 -6 -42 13 -48 26 -8 25 -23 -2 -35 l-23 -9 23 0
c32 -1 40 28 14 50 -28 22 -27 27 1 39 21 8 21 9 1 9 -11 1 -24 -2 -27 -6z"/>
<path d="M6540 1102 c0 -13 -7 -18 -22 -18 -19 1 -23 -4 -23 -29 0 -26 4 -30
28 -31 26 -1 27 1 27 47 0 27 -2 49 -5 49 -3 0 -5 -8 -5 -18z m-5 -47 c0 -11
-8 -21 -17 -23 -14 -3 -18 3 -18 23 0 20 4 26 18 23 9 -2 17 -12 17 -23z"/>
<path d="M6723 1070 c0 -30 2 -43 4 -27 2 15 2 39 0 55 -2 15 -4 2 -4 -28z"/>
<path d="M6960 1071 c0 -57 19 -71 22 -16 0 19 1 40 2 47 1 6 -5 13 -11 16 -9
2 -13 -11 -13 -47z"/>
<path d="M7030 1083 l0 -38 -20 25 c-11 14 -20 21 -20 15 0 -5 11 -23 25 -40
l24 -30 1 53 c0 28 -2 52 -5 52 -3 0 -5 -17 -5 -37z"/>
<path d="M7070 1070 c0 -48 1 -50 28 -49 23 2 24 2 5 6 -14 3 -23 12 -23 23 0
11 9 20 23 23 l22 4 -22 2 c-13 0 -23 7 -23 15 0 8 10 17 23 19 19 4 18 4 -5
6 -27 1 -28 -1 -28 -49z"/>
<path d="M7141 1111 c-2 -21 21 -91 30 -91 5 0 11 16 15 35 7 40 19 38 27 -5
4 -16 10 -30 15 -30 9 0 35 90 27 98 -2 3 -8 -9 -11 -27 -9 -45 -22 -48 -30
-6 -8 45 -21 45 -30 0 -8 -45 -18 -44 -31 3 -6 20 -11 31 -12 23z"/>
<path d="M3828 1097 c-8 -22 7 -70 22 -75 12 -4 13 -2 3 9 -15 15 -17 46 -4
51 5 2 3 8 -4 15 -10 9 -14 9 -17 0z"/>
<path d="M3878 1097 c-8 -22 7 -70 22 -75 12 -4 13 -2 3 9 -15 15 -17 46 -4
51 5 2 3 8 -4 15 -10 9 -14 9 -17 0z"/>
<path d="M5018 1097 c-8 -22 7 -70 22 -75 12 -4 13 -2 3 9 -15 15 -17 46 -4
51 5 2 3 8 -4 15 -10 9 -14 9 -17 0z"/>
<path d="M5708 1097 c-8 -22 7 -70 22 -75 12 -4 13 -2 3 9 -15 15 -17 46 -4
51 5 2 3 8 -4 15 -10 9 -14 9 -17 0z"/>
<path d="M6798 1100 c-5 -17 3 -80 11 -80 7 0 6 79 -2 86 -3 3 -7 0 -9 -6z"/>
<path d="M3190 1055 c0 -19 5 -35 10 -35 6 0 10 16 10 35 0 19 -4 35 -10 35
-5 0 -10 -16 -10 -35z"/>
<path d="M3230 1069 c-13 -24 2 -49 29 -49 14 1 14 2 -1 11 -10 5 -18 16 -18
24 0 8 8 19 18 24 16 10 16 10 0 11 -10 0 -22 -9 -28 -21z"/>
<path d="M3393 1083 c23 -6 22 -20 -4 -28 -21 -7 -22 -26 -1 -33 7 -2 10 2 6
12 -3 9 -1 16 5 16 6 0 11 -7 11 -15 0 -8 5 -15 10 -15 11 0 13 30 4 54 -3 9
-16 15 -28 15 -16 -1 -17 -2 -3 -6z"/>
<path d="M3454 1076 c-11 -28 1 -51 26 -53 l25 -3 -25 12 -25 12 28 4 c29 4
33 12 15 30 -16 16 -37 15 -44 -2z m41 -6 c3 -5 -3 -10 -15 -10 -12 0 -18 5
-15 10 3 6 10 10 15 10 5 0 12 -4 15 -10z"/>
<path d="M3679 1074 c-15 -18 -2 -48 22 -50 8 0 9 1 2 3 -27 10 -23 44 7 56
13 4 12 6 -1 6 -9 1 -22 -6 -30 -15z"/>
<path d="M3752 1081 c-20 -12 -11 -55 12 -59 27 -6 48 25 35 49 -10 20 -26 24
-47 10z m35 -17 c8 -21 -13 -42 -28 -27 -13 13 -5 43 11 43 6 0 13 -7 17 -16z"/>
<path d="M3973 1055 c0 -22 2 -30 4 -17 2 12 2 30 0 40 -3 9 -5 -1 -4 -23z"/>
<path d="M3997 1083 c6 -4 13 -22 16 -38 4 -27 5 -27 3 4 0 21 -7 36 -16 38
-10 3 -11 2 -3 -4z"/>
<path d="M4037 1083 c6 -4 13 -22 16 -38 4 -27 5 -27 3 4 0 21 -7 36 -16 38
-10 3 -11 2 -3 -4z"/>
<path d="M4090 1076 c-27 -33 18 -72 48 -42 13 13 14 20 6 34 -15 23 -38 26
-54 8z m48 -19 c4 -20 -25 -34 -40 -19 -15 15 -1 44 19 40 10 -2 19 -11 21
-21z"/>
<path d="M4160 1085 c0 -5 5 -17 10 -25 5 -8 10 -10 10 -5 0 6 -5 17 -10 25
-5 8 -10 11 -10 5z"/>
<path d="M4240 1075 c-18 -22 -1 -49 31 -52 19 -1 20 -1 4 4 -34 9 -41 23 -11
23 21 0 27 4 24 17 -4 24 -32 28 -48 8z m40 -5 c0 -5 -9 -10 -21 -10 -11 0
-17 5 -14 10 3 6 13 10 21 10 8 0 14 -4 14 -10z"/>
<path d="M4553 1084 c23 -7 22 -20 -3 -27 -25 -6 -27 -37 -2 -36 10 0 12 3 5
6 -18 7 -16 23 1 23 8 0 17 -8 20 -17 2 -10 4 -2 3 17 -2 27 -7 35 -22 37 -16
1 -16 1 -2 -3z"/>
<path d="M4611 1050 c1 -34 1 -34 8 -6 9 41 31 46 31 7 0 -17 5 -31 10 -31 12
0 13 40 2 57 -4 7 -18 11 -30 10 -18 -1 -22 -7 -21 -37z"/>
<path d="M4689 1074 c-14 -17 -3 -46 19 -50 7 -1 8 0 2 3 -14 7 -13 50 3 56 7
4 8 6 1 6 -6 1 -17 -6 -25 -15z"/>
<path d="M4783 1083 c-7 -2 -13 -15 -13 -28 0 -22 18 -36 43 -34 7 0 2 4 -10
9 -13 5 -23 16 -23 25 0 9 10 20 23 25 12 5 15 9 7 9 -8 -1 -21 -3 -27 -6z"/>
<path d="M4841 1050 c1 -27 3 -29 6 -10 2 14 11 30 20 37 13 10 13 12 -6 10
-17 -1 -21 -7 -20 -37z"/>
<path d="M4914 1077 c18 -13 18 -14 -3 -20 -31 -8 -28 -37 4 -35 22 2 26 7 23
33 -2 21 -9 31 -23 33 -19 4 -20 3 -1 -11z m11 -37 c-3 -5 -10 -10 -16 -10 -5
0 -9 5 -9 10 0 6 7 10 16 10 8 0 12 -4 9 -10z"/>
<path d="M5070 1075 c-17 -20 -2 -49 26 -52 13 -2 11 1 -6 9 l-25 12 28 4 c20
2 27 8 25 20 -4 23 -32 26 -48 7z m35 -5 c3 -5 -3 -10 -15 -10 -12 0 -18 5
-15 10 3 6 10 10 15 10 5 0 12 -4 15 -10z"/>
<path d="M5139 1074 c-14 -17 -3 -46 19 -50 7 -1 8 0 2 3 -14 7 -13 50 3 56 7
4 8 6 1 6 -6 1 -17 -6 -25 -15z"/>
<path d="M5352 1078 c-16 -16 -15 -33 3 -48 21 -18 55 -3 55 25 0 32 -35 46
-58 23z m43 -23 c0 -11 -8 -21 -17 -23 -14 -3 -18 3 -18 23 0 20 4 26 18 23 9
-2 17 -12 17 -23z"/>
<path d="M5430 1055 c0 -19 5 -35 10 -35 6 0 10 16 10 35 0 19 -4 35 -10 35
-5 0 -10 -16 -10 -35z"/>
<path d="M5467 1079 c6 -8 13 -25 16 -39 4 -17 5 -15 4 9 -1 21 -8 36 -17 39
-12 4 -13 2 -3 -9z"/>
<path d="M5523 1083 c-7 -2 -13 -15 -13 -28 0 -22 18 -36 43 -34 7 0 2 4 -10
9 -13 5 -23 16 -23 25 0 9 10 20 23 25 12 5 15 9 7 9 -8 -1 -21 -3 -27 -6z"/>
<path d="M5581 1050 c1 -27 3 -29 6 -10 2 14 11 30 20 37 13 10 13 12 -6 10
-17 -1 -21 -7 -20 -37z"/>
<path d="M5634 1076 c-11 -28 1 -51 26 -53 l25 -3 -25 12 -25 12 28 4 c29 4
33 12 15 30 -16 16 -37 15 -44 -2z m41 -6 c3 -5 -3 -10 -15 -10 -12 0 -18 5
-15 10 3 6 10 10 15 10 5 0 12 -4 15 -10z"/>
<path d="M5760 1075 c-17 -20 -2 -49 26 -52 13 -2 11 1 -6 9 l-25 12 28 4 c20
2 27 8 25 20 -4 23 -32 26 -48 7z m35 -5 c3 -5 -3 -10 -15 -10 -12 0 -18 5
-15 10 3 6 10 10 15 10 5 0 12 -4 15 -10z"/>
<path d="M5963 1084 c23 -7 22 -20 -3 -27 -25 -6 -27 -37 -2 -36 10 0 12 3 5
6 -18 7 -16 23 1 23 8 0 17 -8 20 -17 2 -10 4 -2 3 17 -2 27 -7 35 -22 37 -16
1 -16 1 -2 -3z"/>
<path d="M6010 1068 c0 -33 12 -47 38 -45 18 1 22 7 21 37 -1 34 -1 34 -8 6
-9 -41 -31 -46 -31 -7 0 17 -4 31 -10 31 -5 0 -10 -10 -10 -22z"/>
<path d="M6100 1071 c0 -10 8 -22 18 -26 16 -7 15 -8 -3 -15 -16 -7 -17 -9 -3
-9 26 -1 33 20 12 36 -16 12 -17 15 -4 23 13 8 12 10 -2 10 -11 0 -18 -8 -18
-19z"/>
<path d="M6184 1077 c18 -13 18 -14 -8 -21 -27 -7 -31 -26 -8 -34 7 -2 10 2 6
12 -4 11 -1 16 11 16 9 0 14 -4 10 -9 -3 -5 0 -13 6 -16 7 -5 9 4 7 26 -2 25
-9 35 -23 37 -20 4 -20 3 -1 -11z"/>
<path d="M6234 1076 c-11 -27 1 -51 24 -50 29 1 28 -14 0 -26 -13 -5 -18 -9
-11 -9 31 -2 43 12 43 53 0 37 -3 42 -25 44 -15 1 -28 -4 -31 -12z m43 -12 c8
-21 -13 -42 -28 -27 -13 13 -5 43 11 43 6 0 13 -7 17 -16z"/>
<path d="M6320 1075 c-17 -20 -2 -49 26 -52 13 -2 11 1 -6 9 l-25 12 28 4 c20
2 27 8 25 20 -4 23 -32 26 -48 7z m35 -5 c3 -5 -3 -10 -15 -10 -12 0 -18 5
-15 10 3 6 10 10 15 10 5 0 12 -4 15 -10z"/>
<path d="M6394 1078 c-4 -6 0 -16 9 -23 22 -16 21 -22 0 -28 -16 -4 -16 -5 -1
-6 24 -2 34 20 15 34 -22 16 -21 22 1 28 15 4 15 5 0 6 -9 0 -20 -4 -24 -11z"/>
<path d="M6574 1076 c-11 -28 1 -51 26 -53 22 -1 22 -1 3 4 -31 6 -29 23 3 23
20 0 25 4 20 16 -3 9 -6 18 -6 20 0 11 -41 2 -46 -10z m41 -6 c3 -5 -3 -10
-14 -10 -12 0 -21 5 -21 10 0 6 6 10 14 10 8 0 18 -4 21 -10z"/>
<path d="M6650 1086 c0 -2 9 -6 20 -9 11 -3 20 -1 20 4 0 5 -9 9 -20 9 -11 0
-20 -2 -20 -4z"/>
<path d="M6844 1076 c-11 -29 0 -51 26 -51 21 0 25 5 25 30 0 24 -5 31 -23 33
-13 2 -24 -3 -28 -12z m46 -21 c0 -18 -5 -25 -20 -25 -15 0 -20 7 -20 25 0 18
5 25 20 25 15 0 20 -7 20 -25z"/>
<path d="M6645 1050 c-3 -5 -3 -14 0 -20 8 -12 32 -13 39 -1 4 5 -3 7 -14 4
-11 -3 -20 -1 -20 5 0 6 10 13 23 15 22 4 22 4 0 6 -12 0 -25 -3 -28 -9z"/>
<path d="M4180 1029 c0 -5 5 -7 10 -4 6 3 10 8 10 11 0 2 -4 4 -10 4 -5 0 -10
-5 -10 -11z"/>
<path d="M2427 692 c-15 -16 -17 -47 -17 -224 0 -186 2 -206 18 -221 16 -15
47 -17 224 -17 186 0 206 2 221 18 15 16 17 47 17 224 0 186 -2 206 -18 221
-16 15 -47 17 -224 17 -186 0 -206 -2 -221 -18z m132 -166 c40 -21 54 -42 47
-70 -8 -32 -64 -46 -96 -23 -16 11 -18 16 -8 20 10 4 10 7 1 14 -9 6 -7 12 7
21 12 7 20 8 20 2 0 -5 9 -10 20 -10 11 0 20 -4 20 -9 0 -5 -9 -7 -20 -4 -14
4 -20 0 -20 -10 0 -25 19 -30 46 -13 20 14 22 20 14 36 -14 25 -45 42 -95 51
l-40 6 38 2 c21 0 50 -5 66 -13z m94 -3 c9 -9 -12 -33 -29 -33 -8 0 -14 9 -14
20 0 19 28 28 43 13z m97 -62 c0 9 6 19 13 22 10 4 14 -4 14 -24 0 -25 -4 -29
-26 -27 -14 2 -29 8 -33 13 -5 7 -11 7 -15 0 -5 -6 -21 -11 -38 -13 -20 -2
-26 0 -17 6 11 8 11 10 -2 15 -9 4 -16 -1 -19 -11 -3 -11 -5 -7 -6 8 -1 23 3
26 37 27 32 1 34 0 12 -7 l-25 -8 28 -1 c15 -1 27 4 27 10 0 5 5 7 10 4 6 -3
10 0 10 7 1 7 7 2 15 -12 10 -17 14 -20 15 -9z m90 3 c0 -9 -14 -29 -31 -46
l-30 -31 7 39 c9 49 8 49 33 51 13 1 21 -4 21 -13z"/>
<path d="M2630 509 c0 -5 5 -7 10 -4 6 3 10 8 10 11 0 2 -4 4 -10 4 -5 0 -10
-5 -10 -11z"/>
<path d="M3082 613 c-1 -28 -8 -45 -19 -52 -17 -10 -17 -10 0 -11 23 0 29 18
24 66 l-4 39 -1 -42z"/>
<path d="M3333 643 c-19 -7 -17 -82 2 -89 36 -14 62 55 33 84 -13 13 -16 13
-35 5z m32 -23 c8 -26 -3 -62 -18 -57 -7 2 -13 14 -15 26 -7 45 20 71 33 31z"/>
<path d="M3412 643 c26 -4 26 -5 12 -38 -8 -19 -14 -40 -14 -47 1 -13 22 30
34 70 7 20 4 22 -26 21 -29 -2 -30 -2 -6 -6z"/>
<path d="M3576 636 c19 -14 18 -15 -8 -43 -36 -37 -35 -43 5 -42 23 1 26 3 10
6 -28 5 -29 11 -2 39 24 25 20 54 -8 54 -15 0 -15 -2 3 -14z"/>
<path d="M3632 638 c-31 -31 0 -105 33 -78 25 21 14 90 -15 90 -3 0 -11 -5
-18 -12z m33 -39 c0 -24 -5 -34 -15 -34 -16 0 -25 37 -16 62 10 26 31 8 31
-28z"/>
<path d="M3706 641 c-3 -5 3 -7 14 -4 26 7 26 -18 0 -42 -30 -28 -25 -45 13
-44 31 2 31 2 3 6 l-28 5 22 23 c12 13 20 31 18 41 -4 21 -33 31 -42 15z"/>
<path d="M3800 639 c23 -10 24 -11 7 -24 -15 -11 -16 -13 -2 -19 22 -8 18 -25
-7 -36 -13 -5 -18 -9 -11 -9 24 -2 43 12 43 30 0 10 -5 19 -11 19 -8 0 -8 4 1
15 15 19 5 35 -23 34 -21 0 -21 -1 3 -10z"/>
<path d="M4000 640 c-9 -6 -10 -10 -3 -10 7 0 14 -19 16 -42 3 -41 4 -41 5 10
1 28 1 52 0 52 -2 0 -10 -5 -18 -10z"/>
<path d="M4062 643 c27 -4 28 -5 13 -33 -8 -16 -15 -37 -15 -47 1 -13 40 70
40 85 0 1 -15 1 -32 1 -31 -2 -31 -2 -6 -6z"/>
<path d="M4186 636 c19 -14 18 -15 -8 -43 -36 -37 -35 -43 5 -42 23 1 26 3 10
6 -28 5 -29 11 -2 39 24 25 20 54 -8 54 -15 0 -15 -2 3 -14z"/>
<path d="M4248 643 c17 -3 22 -9 17 -21 -15 -37 -23 -72 -17 -72 4 0 12 15 18
33 6 17 14 40 19 50 6 14 2 17 -26 16 -25 -1 -28 -3 -11 -6z"/>
<path d="M3124 591 c0 -21 7 -36 16 -38 10 -3 11 -2 3 4 -6 4 -13 22 -16 38
-4 27 -5 27 -3 -4z"/>
<path d="M3160 585 c0 -19 5 -35 10 -35 6 0 10 16 10 35 0 19 -4 35 -10 35 -5
0 -10 -16 -10 -35z"/>
<path d="M3200 586 c0 -20 2 -36 4 -36 8 0 12 61 4 66 -4 3 -8 -11 -8 -30z"/>
<path d="M3237 609 c6 -8 13 -25 16 -39 4 -17 5 -15 4 9 -1 21 -8 36 -17 39
-12 4 -13 2 -3 -9z"/>
<path d="M3908 583 c7 -3 16 -2 19 1 4 3 -2 6 -13 5 -11 0 -14 -3 -6 -6z"/>
<path d="M3060 340 c0 -27 5 -50 10 -50 6 0 10 12 10 28 0 15 3 37 6 50 5 16
2 22 -10 22 -13 0 -16 -11 -16 -50z"/>
<path d="M3133 353 l-15 -37 -14 24 c-8 15 -13 19 -13 10 0 -8 6 -26 13 -39
l13 -23 16 38 16 39 0 -37 c1 -21 6 -38 11 -38 6 0 10 23 10 50 0 59 -15 65
-37 13z"/>
<path d="M3303 340 c-1 -39 1 -47 6 -26 9 41 31 46 31 7 0 -17 5 -31 10 -31
12 0 13 40 1 59 -5 8 -16 11 -24 8 -11 -4 -17 1 -20 16 -2 12 -4 -3 -4 -33z"/>
<path d="M3520 340 c0 -27 5 -50 10 -50 6 0 10 23 10 50 0 28 -4 50 -10 50 -5
0 -10 -22 -10 -50z"/>
<path d="M3607 383 c-14 -13 -6 -42 13 -48 26 -8 25 -23 -2 -35 l-23 -9 23 0
c32 -1 40 28 14 50 -28 22 -27 27 1 39 21 8 21 9 1 9 -11 1 -24 -2 -27 -6z"/>
<path d="M4360 371 c0 -14 -5 -18 -19 -14 -10 3 -21 1 -24 -4 -3 -5 4 -9 16
-9 16 1 22 -5 22 -19 0 -14 -6 -20 -22 -19 -12 0 -20 -3 -17 -8 3 -4 16 -7 29
-6 23 2 25 7 25 50 0 26 -2 48 -5 48 -3 0 -5 -9 -5 -19z"/>
<path d="M4448 379 c-22 -12 -24 -62 -3 -79 21 -18 65 -4 65 20 0 14 -6 20
-22 19 -13 0 -17 -3 -10 -6 18 -7 15 -35 -4 -31 -47 9 -41 66 7 79 20 6 21 7
4 8 -11 0 -28 -4 -37 -10z"/>
<path d="M5083 376 c3 -8 9 -31 13 -50 3 -20 10 -36 14 -36 9 0 20 26 19 43 0
7 -4 3 -8 -8 -7 -17 -10 -13 -20 23 -7 23 -14 42 -17 42 -4 0 -4 -6 -1 -14z"/>
<path d="M5137 383 c-11 -10 -8 -35 2 -28 6 3 13 -10 17 -30 3 -19 10 -35 15
-35 9 0 29 66 28 90 -1 8 -7 -5 -13 -30 l-13 -45 -12 43 c-12 44 -14 46 -24
35z"/>
<path d="M5430 340 c0 -27 5 -50 10 -50 6 0 10 23 10 50 0 28 -4 50 -10 50 -5
0 -10 -22 -10 -50z"/>
<path d="M5660 340 c0 -27 5 -50 10 -50 6 0 10 11 10 24 0 15 7 26 18 29 16 4
16 5 0 6 -10 0 -18 7 -18 15 0 8 8 17 18 19 10 3 6 5 -10 6 -27 1 -28 -1 -28
-49z"/>
<path d="M5830 340 c0 -29 3 -51 6 -48 7 8 8 88 0 95 -3 4 -6 -18 -6 -47z"/>
<path d="M6003 340 c0 -30 2 -43 4 -27 2 15 2 39 0 55 -2 15 -4 2 -4 -28z"/>
<path d="M6183 340 c0 -30 2 -43 4 -27 2 15 2 39 0 55 -2 15 -4 2 -4 -28z"/>
<path d="M6420 340 c0 -27 5 -50 10 -50 6 0 10 17 11 38 0 32 2 35 12 18 7
-10 20 -28 29 -40 17 -20 17 -20 16 34 -1 52 -1 53 -7 15 l-6 -40 -23 38 c-13
20 -28 37 -33 37 -5 0 -9 -22 -9 -50z"/>
<path d="M6530 340 l0 -50 33 1 c23 1 26 3 10 6 -27 5 -31 39 -5 46 16 4 16 5
0 6 -10 0 -18 7 -18 15 0 8 8 17 18 19 10 3 6 5 -10 6 -27 1 -28 -1 -28 -49z"/>
<path d="M6603 376 c3 -8 9 -31 13 -50 3 -20 10 -36 14 -36 9 0 20 26 19 43 0
7 -4 3 -8 -8 -7 -17 -10 -13 -20 23 -7 23 -14 42 -17 42 -4 0 -4 -6 -1 -14z"/>
<path d="M6657 383 c-11 -10 -8 -35 2 -28 6 3 13 -10 17 -30 3 -19 10 -35 15
-35 9 0 29 66 28 90 -1 8 -7 -5 -13 -30 l-13 -45 -12 43 c-12 44 -14 46 -24
35z"/>
<path d="M3828 367 c-8 -22 7 -70 22 -75 12 -4 13 -2 3 9 -15 15 -17 46 -4 51
5 2 3 8 -4 15 -10 9 -14 9 -17 0z"/>
<path d="M3878 367 c-8 -22 7 -70 22 -75 12 -4 13 -2 3 9 -15 15 -17 46 -4 51
5 2 3 8 -4 15 -10 9 -14 9 -17 0z"/>
<path d="M6258 370 c-5 -17 3 -80 11 -80 7 0 6 79 -2 86 -3 3 -7 0 -9 -6z"/>
<path d="M3190 325 c0 -19 5 -35 10 -35 6 0 10 16 10 35 0 19 -4 35 -10 35 -5
0 -10 -16 -10 -35z"/>
<path d="M3230 339 c-13 -24 2 -49 29 -49 14 1 14 2 -1 11 -10 5 -18 16 -18
24 0 8 8 19 18 24 16 10 16 10 0 11 -10 0 -22 -9 -28 -21z"/>
<path d="M3393 353 c23 -6 22 -20 -4 -28 -21 -7 -22 -26 -1 -33 7 -2 10 2 6
12 -3 9 -1 16 5 16 6 0 11 -7 11 -15 0 -8 5 -15 10 -15 11 0 13 30 4 54 -3 9
-16 15 -28 15 -16 -1 -17 -2 -3 -6z"/>
<path d="M3454 346 c-11 -28 1 -51 26 -53 l25 -3 -25 12 -25 12 28 4 c29 4 33
12 15 30 -16 16 -37 15 -44 -2z m41 -6 c3 -5 -3 -10 -15 -10 -12 0 -18 5 -15
10 3 6 10 10 15 10 5 0 12 -4 15 -10z"/>
<path d="M3679 344 c-15 -18 -2 -48 22 -50 8 0 9 1 2 3 -27 10 -23 44 7 56 13
4 12 6 -1 6 -9 1 -22 -6 -30 -15z"/>
<path d="M3752 351 c-20 -12 -11 -55 12 -59 27 -6 48 25 35 49 -10 20 -26 24
-47 10z m35 -17 c8 -21 -13 -42 -28 -27 -13 13 -5 43 11 43 6 0 13 -7 17 -16z"/>
<path d="M3973 325 c0 -22 2 -30 4 -17 2 12 2 30 0 40 -3 9 -5 -1 -4 -23z"/>
<path d="M3997 353 c6 -4 13 -22 16 -38 4 -27 5 -27 3 4 0 21 -7 36 -16 38
-10 3 -11 2 -3 -4z"/>
<path d="M4037 353 c6 -4 13 -22 16 -38 4 -27 5 -27 3 4 0 21 -7 36 -16 38
-10 3 -11 2 -3 -4z"/>
<path d="M4090 346 c-27 -33 18 -72 48 -42 13 13 14 20 6 34 -15 23 -38 26
-54 8z m48 -19 c4 -20 -25 -34 -40 -19 -15 15 -1 44 19 40 10 -2 19 -11 21
-21z"/>
<path d="M4160 355 c0 -5 5 -17 10 -25 5 -8 10 -10 10 -5 0 6 -5 17 -10 25 -5
8 -10 11 -10 5z"/>
<path d="M4240 345 c-18 -22 -1 -49 31 -52 19 -1 20 -1 4 4 -34 9 -41 23 -11
23 21 0 27 4 24 17 -4 24 -32 28 -48 8z m40 -5 c0 -5 -9 -10 -21 -10 -11 0
-17 5 -14 10 3 6 13 10 21 10 8 0 14 -4 14 -10z"/>
<path d="M4532 348 c-16 -16 -15 -33 3 -48 21 -18 55 -3 55 25 0 32 -35 46
-58 23z m43 -23 c0 -11 -8 -21 -17 -23 -14 -3 -18 3 -18 23 0 20 4 26 18 23 9
-2 17 -12 17 -23z"/>
<path d="M4610 325 c0 -19 5 -35 10 -35 6 0 10 16 10 35 0 19 -4 35 -10 35 -5
0 -10 -16 -10 -35z"/>
<path d="M4664 346 c-11 -27 1 -51 24 -50 29 1 28 -14 0 -26 -13 -5 -18 -9
-11 -9 31 -2 43 12 43 53 0 37 -3 42 -25 44 -15 1 -28 -4 -31 -12z m43 -12 c8
-21 -13 -42 -28 -27 -13 13 -5 43 11 43 6 0 13 -7 17 -16z"/>
<path d="M4750 345 c-16 -19 -3 -49 21 -51 9 -1 10 0 2 3 -21 7 -15 23 8 23
14 0 19 5 17 17 -4 24 -32 28 -48 8z m40 -5 c0 -5 -7 -10 -15 -10 -8 0 -15 5
-15 10 0 6 7 10 15 10 8 0 15 -4 15 -10z"/>
<path d="M4832 351 c-20 -12 -11 -55 12 -59 27 -6 48 25 35 49 -10 20 -26 24
-47 10z m35 -17 c8 -21 -13 -42 -28 -27 -13 13 -5 43 11 43 6 0 13 -7 17 -16z"/>
<path d="M4900 338 c0 -33 12 -47 38 -45 18 1 22 7 21 37 -1 34 -1 34 -8 6 -9
-41 -31 -46 -31 -7 0 17 -4 31 -10 31 -5 0 -10 -10 -10 -22z"/>
<path d="M4990 341 c0 -10 8 -22 18 -26 16 -7 15 -8 -3 -15 -16 -7 -17 -9 -3
-9 26 -1 33 20 12 36 -16 12 -17 15 -4 23 13 8 12 10 -2 10 -11 0 -18 -8 -18
-19z"/>
<path d="M5222 348 c-16 -16 -15 -33 3 -48 21 -18 55 -3 55 25 0 32 -35 46
-58 23z m43 -23 c0 -11 -8 -21 -17 -23 -14 -3 -18 3 -18 23 0 20 4 26 18 23 9
-2 17 -12 17 -23z"/>
<path d="M5312 351 c-20 -12 -11 -55 12 -59 27 -6 48 25 35 49 -10 20 -26 24
-47 10z m35 -17 c8 -21 -13 -42 -28 -27 -13 13 -5 43 11 43 6 0 13 -7 17 -16z"/>
<path d="M5389 344 c-14 -18 -3 -45 22 -51 8 -3 7 0 -3 7 -22 14 -23 24 -2 44
8 9 11 16 6 16 -5 0 -15 -7 -23 -16z"/>
<path d="M5470 345 c-16 -19 -3 -49 21 -51 9 -1 10 0 2 3 -21 7 -15 23 8 23
14 0 19 5 17 17 -4 24 -32 28 -48 8z m40 -5 c0 -5 -7 -10 -15 -10 -8 0 -15 5
-15 10 0 6 7 10 15 10 8 0 15 -4 15 -10z"/>
<path d="M5540 325 c0 -19 5 -35 10 -35 6 0 10 16 10 35 0 19 -4 35 -10 35 -5
0 -10 -16 -10 -35z"/>
<path d="M5577 349 c6 -8 13 -25 16 -39 4 -17 5 -15 4 9 -1 21 -8 36 -17 39
-12 4 -13 2 -3 -9z"/>
<path d="M5730 325 c0 -19 5 -35 10 -35 6 0 10 16 10 35 0 19 -4 35 -10 35 -5
0 -10 -16 -10 -35z"/>
<path d="M5774 348 c-4 -6 0 -16 9 -23 22 -16 21 -22 0 -28 -16 -4 -16 -5 -1
-6 24 -2 34 20 15 34 -22 16 -21 22 1 28 15 4 15 5 0 6 -9 0 -20 -4 -24 -11z"/>
<path d="M5867 349 c6 -8 13 -25 16 -39 4 -17 5 -15 4 9 -1 21 -8 36 -17 39
-12 4 -13 2 -3 -9z"/>
<path d="M5954 346 c-9 -23 0 -51 16 -52 9 0 10 1 3 3 -20 7 -16 51 5 56 16 4
16 5 -1 6 -10 0 -20 -5 -23 -13z"/>
<path d="M6040 345 c-18 -22 -1 -49 31 -52 19 -1 20 -1 4 4 -34 9 -41 23 -11
23 21 0 27 4 24 17 -4 24 -32 28 -48 8z m40 -5 c0 -5 -9 -10 -21 -10 -11 0
-17 5 -14 10 3 6 13 10 21 10 8 0 14 -4 14 -10z"/>
<path d="M6130 348 c24 -10 24 -10 5 -18 -18 -8 -18 -9 -2 -9 10 -1 15 -6 11
-12 -3 -6 -15 -9 -25 -6 -11 3 -17 1 -14 -4 10 -16 55 -6 55 12 0 32 -12 49
-34 48 -19 0 -19 -1 4 -11z"/>
<path d="M6304 346 c-11 -29 0 -51 26 -51 21 0 25 5 25 30 0 24 -5 31 -23 33
-13 2 -24 -3 -28 -12z m46 -21 c0 -18 -5 -25 -20 -25 -15 0 -20 7 -20 25 0 18
5 25 20 25 15 0 20 -7 20 -25z"/>
<path d="M4180 299 c0 -5 5 -7 10 -4 6 3 10 8 10 11 0 2 -4 4 -10 4 -5 0 -10
-5 -10 -11z"/>
<path d="M980 265 c-14 -17 -1 -39 34 -56 12 -6 9 -1 -9 14 -25 21 -28 27 -16
41 7 9 11 16 8 16 -2 0 -10 -7 -17 -15z"/>
<path d="M19095 100 c17 -19 19 -19 37 -4 24 23 24 24 -19 24 -36 0 -36 0 -18
-20z"/>
<path d="M4797 3 c2642 -2 6964 -2 9605 0 2642 1 481 2 -4802 2 -5283 0 -7444
-1 -4803 -2z"/>
</g>
</svg>
